<svg width="250" height="250" viewBox="0 0 250 250" fill="none" xmlns="http://www.w3.org/2000/svg">
<ellipse cx="116" cy="147.5" rx="90" ry="62.5" fill="#D9D9D9"/>
<circle cx="156" cy="140" r="50" fill="#50A2A7"/>
<ellipse cx="206" cy="196" rx="25" ry="48" fill="#EEF300"/>
<circle cx="195" cy="65" r="50" fill="#D33C3C"/>
<path d="M37.6282 49.144L28.0282 48.376L26.4922 61.192L21.2122 61.432L18.9562 29.8L40.1242 29.128L39.9802 32.344L29.8522 33.544L28.4602 44.92L37.3882 44.824L37.6282 49.144ZM67.9267 51.064C67.9267 53.016 67.7667 54.648 67.4467 55.96C67.1267 57.24 66.5507 58.376 65.7187 59.368C64.1187 61.224 61.0147 62.152 56.4067 62.152C51.8307 62.152 48.2787 61.112 45.7507 59.032C45.2067 56.344 44.9347 53.688 44.9347 51.064C44.9347 45.752 45.9267 41 47.9107 36.808C49.9267 32.616 52.2627 29.64 54.9187 27.88C58.6627 29.416 61.7667 32.296 64.2307 36.52C66.6947 40.712 67.9267 45.56 67.9267 51.064ZM62.1187 48.904C62.1187 43.976 61.3027 39.752 59.6707 36.232C56.5667 39.08 54.1347 42.376 52.3747 46.12C50.6467 49.864 49.7827 53.544 49.7827 57.16C50.8707 57.384 52.1667 57.496 53.6707 57.496C56.6147 57.496 59.1427 57.128 61.2547 56.392C61.8307 53.896 62.1187 51.4 62.1187 48.904ZM85.2483 48.808C84.6723 49 84.2083 49.096 83.8563 49.096L82.5603 61.192L77.7603 61.672L75.0243 30.76C76.7203 30.216 78.9603 29.72 81.7443 29.272C84.5603 28.824 87.2483 28.6 89.8083 28.6C93.9043 28.6 97.1843 29.368 99.6483 30.904C100.224 32.632 100.512 34.216 100.512 35.656C100.512 39.688 98.1923 43.016 93.5523 45.64L101.616 60.952L98.2563 62.824L85.2483 48.808ZM91.2483 36.952C91.2483 34.68 90.2403 32.936 88.2243 31.72C87.4563 31.72 86.5923 31.88 85.6323 32.2L84.1923 46.024C86.4003 45.032 88.1283 43.704 89.3763 42.04C90.6243 40.344 91.2483 38.648 91.2483 36.952ZM140.935 61.72L134.071 36.184H133.687L128.455 61L124.135 61.72L113.719 38.056H113.431L112.663 61L107.863 61.24L110.119 29.8L121.735 29.32L126.583 52.168L132.199 29.08L143.815 29.8L145.255 61L140.935 61.72ZM50.5792 69.08L54.4672 93.176H54.8992L61.8592 69.08L66.1792 70.232L55.7632 101L51.4432 101.72L39.5872 70.376L50.5792 69.08ZM75.0416 101.672L72.3056 69.8L83.7296 69.08L80.3216 101.192L75.0416 101.672ZM92.9774 70.76C97.4574 69.32 101.985 68.6 106.561 68.6C111.137 68.6 114.657 69.368 117.121 70.904C117.697 72.632 117.985 74.28 117.985 75.848C117.985 79.528 116.465 82.616 113.425 85.112C110.385 87.576 106.465 89.352 101.665 90.44L100.513 101.192L95.7134 101.672L92.9774 70.76ZM108.721 77.24C108.721 74.776 107.713 72.936 105.697 71.72C105.121 71.72 104.417 71.832 103.585 72.056L102.001 87.176C104.081 86.024 105.713 84.536 106.897 82.712C108.113 80.888 108.721 79.064 108.721 77.24ZM125.901 101.672L123.165 69.8L134.589 69.08L131.181 101.192L125.901 101.672Z" fill="black"/>
</svg>
